<svg width="20" height="20" viewBox="0 0 20 20" fill="none" xmlns="http://www.w3.org/2000/svg">
<path fill-rule="evenodd" clip-rule="evenodd" d="M9.58335 2.2915C5.55628 2.2915 2.29169 5.55609 2.29169 9.58317C2.29169 13.6102 5.55628 16.8748 9.58335 16.8748C13.6104 16.8748 16.875 13.6102 16.875 9.58317C16.875 5.55609 13.6104 2.2915 9.58335 2.2915ZM1.04169 9.58317C1.04169 4.86574 4.86592 1.0415 9.58335 1.0415C14.3008 1.0415 18.125 4.86574 18.125 9.58317C18.125 11.7169 17.3426 13.668 16.0491 15.165L18.7753 17.8912C19.0194 18.1353 19.0194 18.531 18.7753 18.7751C18.5312 19.0192 18.1355 19.0192 17.8914 18.7751L15.1652 16.0489C13.6681 17.3424 11.7171 18.1248 9.58335 18.1248C4.86592 18.1248 1.04169 14.3006 1.04169 9.58317Z" fill="#6D7379"/>
</svg>
