<svg width="24" height="23" viewBox="0 0 24 23" fill="none" xmlns="http://www.w3.org/2000/svg">
<rect x="0.5" y="0.5" width="23" height="22" rx="11" fill="white" fill-opacity="0.9"/>
<rect x="0.5" y="0.5" width="23" height="22" rx="11" stroke="url(#paint0_linear_803_2377)"/>
<path d="M5.91202 18.2386H18.0883C19.5583 18.2386 20.3076 17.5035 20.3076 16.0477V8.64831C20.3076 7.1925 19.5583 6.4646 18.0883 6.4646H16.4347C15.8835 6.4646 15.714 6.35152 15.3959 5.99812L14.8233 5.36189C14.4771 4.97351 14.1168 4.76123 13.3816 4.76123H10.5689C9.84101 4.76123 9.48038 4.97351 9.12728 5.36189L8.55467 5.99812C8.24379 6.34429 8.06709 6.4646 7.51588 6.4646H5.91172C4.44174 6.4646 3.69243 7.1925 3.69243 8.64831V16.0477C3.69243 17.5035 4.44204 18.2386 5.91202 18.2386ZM5.93283 17.1006C5.23327 17.1006 4.83042 16.7261 4.83042 15.991V8.71193C4.83042 7.97679 5.23327 7.60229 5.93283 7.60229H7.79842C8.43466 7.60229 8.77388 7.48228 9.12728 7.08666L9.68542 6.4646C10.0883 6.0123 10.2933 5.89922 10.9223 5.89922H13.0282C13.6572 5.89922 13.8623 6.0123 14.2651 6.4646L14.8233 7.08636C15.1767 7.48228 15.5159 7.60229 16.1521 7.60229H18.0672C18.7667 7.60229 19.1699 7.97679 19.1699 8.71193V15.991C19.1699 16.7261 18.767 17.1006 18.0672 17.1006H5.93283ZM11.9967 15.9771C12.5044 15.9785 13.0074 15.8795 13.4766 15.6856C13.9459 15.4918 14.3721 15.207 14.7308 14.8476C15.0894 14.4883 15.3734 14.0615 15.5664 13.5919C15.7594 13.1223 15.8575 12.6191 15.8551 12.1114C15.8551 9.9627 14.1448 8.24576 11.9964 8.24576C9.86212 8.24576 8.14488 9.9627 8.14488 12.1114C8.14488 14.2596 9.86212 15.9771 11.9964 15.9771M17.0775 10.3867C17.5582 10.3867 17.9538 9.99828 17.9538 9.51763C17.9538 9.28523 17.8615 9.06235 17.6971 8.89802C17.5328 8.73369 17.3099 8.64137 17.0775 8.64137C16.8451 8.64137 16.6223 8.73369 16.4579 8.89802C16.2936 9.06235 16.2013 9.28523 16.2013 9.51763C16.2013 9.99828 16.5969 10.3867 17.0775 10.3867ZM11.9967 14.903C10.4631 14.903 9.21231 13.6592 9.21231 12.1114C9.21231 10.5637 10.4561 9.32013 11.9967 9.32013C12.3634 9.31969 12.7266 9.39159 13.0654 9.53171C13.4043 9.67182 13.7122 9.87741 13.9715 10.1367C14.2308 10.396 14.4364 10.7038 14.5766 11.0427C14.7167 11.3816 14.7887 11.7447 14.7883 12.1114C14.7887 12.4782 14.7168 12.8414 14.5767 13.1802C14.4365 13.5191 14.2309 13.8271 13.9716 14.0864C13.7123 14.3457 13.4044 14.5513 13.0655 14.6914C12.7266 14.8316 12.3634 14.9035 11.9967 14.903Z" fill="#145DB8"/>
<defs>
<linearGradient id="paint0_linear_803_2377" x1="26" y1="20" x2="5.63089e-07" y2="5" gradientUnits="userSpaceOnUse">
<stop offset="0.05" stop-color="#145DB8"/>
<stop offset="0.629808" stop-color="white"/>
</linearGradient>
</defs>
</svg>
