<svg width="39" height="26" viewBox="0 0 39 26" fill="none" xmlns="http://www.w3.org/2000/svg">
<path d="M12.4477 8.05549C16.5969 9.0474 20.7462 7.39422 23.194 4.20809L5.37305 0L5.82081 3.21618C7.25365 5.56069 9.58201 7.36416 12.4477 8.05549Z" fill="white"/>
<path d="M36.5672 7.36318L26.1194 4.89844C24.209 7.90422 21.1941 10.0383 17.7911 10.8198L0 6.61173L0.447762 9.82791C1.8806 12.1724 4.17911 14.0059 7.04479 14.6672C9.19404 15.1782 11.3433 14.9678 13.2537 14.2163L17.3135 15.1782C14.2985 17.4025 10.3582 18.3343 6.44777 17.4025C4.44777 16.9216 2.68657 16.0198 1.16418 14.8175L1.8209 19.3863L28.2388 25.6082C28.2388 25.6082 32.6866 26.6603 32.8359 25.2476L31.8806 18.5747L33.612 18.9955C33.612 18.9955 38.0598 20.0476 38.209 18.6348L36.5672 7.36318Z" fill="white"/>
</svg>
